<svg width="10" height="11" viewBox="0 0 10 11" fill="none" xmlns="http://www.w3.org/2000/svg">
<path fill-rule="evenodd" clip-rule="evenodd" d="M10 5.5C10 5.31059 9.93416 5.12895 9.81696 4.99502C9.69976 4.86109 9.54081 4.78584 9.37507 4.78584H2.13463L4.81808 1.72068C4.93542 1.58658 5.00135 1.4047 5.00135 1.21506C5.00135 1.02541 4.93542 0.843536 4.81808 0.709436C4.70073 0.575337 4.54158 0.5 4.37563 0.5C4.20968 0.5 4.05052 0.575337 3.93318 0.709436L0.183597 4.99438C0.125399 5.06072 0.0792255 5.13952 0.0477209 5.22629C0.0162164 5.31305 0 5.40606 0 5.5C0 5.59394 0.0162164 5.68695 0.0477209 5.77371C0.0792255 5.86048 0.125399 5.93928 0.183597 6.00562L3.93318 10.2906C4.05052 10.4247 4.20968 10.5 4.37563 10.5C4.54158 10.5 4.70073 10.4247 4.81808 10.2906C4.93542 10.1565 5.00135 9.97459 5.00135 9.78494C5.00135 9.5953 4.93542 9.41342 4.81808 9.27932L2.13463 6.21416H9.37507C9.54081 6.21416 9.69976 6.13892 9.81696 6.00499C9.93416 5.87106 10 5.68941 10 5.5Z" fill="#DF4A00"/>
</svg>
