<svg width="10" height="11" viewBox="0 0 10 11" fill="none" xmlns="http://www.w3.org/2000/svg">
<path fill-rule="evenodd" clip-rule="evenodd" d="M0 5.5C0 5.31059 0.0658408 5.12895 0.183038 4.99502C0.300235 4.86109 0.459188 4.78584 0.62493 4.78584H7.86537L5.18192 1.72068C5.06458 1.58658 4.99865 1.4047 4.99865 1.21506C4.99865 1.02541 5.06458 0.843536 5.18192 0.709436C5.29927 0.575337 5.45842 0.5 5.62437 0.5C5.79032 0.5 5.94948 0.575337 6.06682 0.709436L9.8164 4.99438C9.8746 5.06072 9.92077 5.13952 9.95228 5.22629C9.98378 5.31305 10 5.40606 10 5.5C10 5.59394 9.98378 5.68695 9.95228 5.77371C9.92077 5.86048 9.8746 5.93928 9.8164 6.00562L6.06682 10.2906C5.94948 10.4247 5.79032 10.5 5.62437 10.5C5.45842 10.5 5.29927 10.4247 5.18192 10.2906C5.06458 10.1565 4.99865 9.97459 4.99865 9.78494C4.99865 9.5953 5.06458 9.41342 5.18192 9.27932L7.86537 6.21416H0.62493C0.459188 6.21416 0.300235 6.13892 0.183038 6.00499C0.0658408 5.87106 0 5.68941 0 5.5Z" fill="#DF4A00"/>
</svg>
