<svg width="20" height="20" viewBox="0 0 20 20" fill="none" xmlns="http://www.w3.org/2000/svg">
<path d="M14.4179 8.74966H19.3329C19.3922 8.74969 19.4504 8.76663 19.5005 8.7985C19.5506 8.83037 19.5906 8.87586 19.6157 8.92963C19.6409 8.98341 19.6503 9.04325 19.6427 9.10214C19.6351 9.16103 19.6109 9.21654 19.5729 9.26216L17.1154 12.2122C17.086 12.2473 17.0493 12.2756 17.0079 12.295C16.9664 12.3145 16.9211 12.3245 16.8754 12.3245C16.8296 12.3245 16.7843 12.3145 16.7429 12.295C16.7014 12.2756 16.6647 12.2473 16.6354 12.2122L14.1779 9.26216C14.1398 9.21654 14.1156 9.16103 14.108 9.10214C14.1004 9.04325 14.1098 8.98341 14.135 8.92963C14.1601 8.87586 14.2001 8.83037 14.2502 8.7985C14.3003 8.76663 14.3585 8.74969 14.4179 8.74966ZM0.667852 11.2497H5.58285C5.64223 11.2496 5.70038 11.2327 5.75048 11.2008C5.80058 11.169 5.84056 11.1235 5.86574 11.0697C5.89092 11.0159 5.90026 10.9561 5.89267 10.8972C5.88507 10.8383 5.86085 10.7828 5.82285 10.7372L3.36535 7.78716C3.33602 7.752 3.29932 7.7237 3.25785 7.70429C3.21638 7.68487 3.17114 7.6748 3.12535 7.6748C3.07956 7.6748 3.03433 7.68487 2.99285 7.70429C2.95138 7.7237 2.91468 7.752 2.88535 7.78716L0.427852 10.7372C0.389849 10.7828 0.365632 10.8383 0.358036 10.8972C0.350441 10.9561 0.359781 11.0159 0.384963 11.0697C0.410146 11.1235 0.450128 11.169 0.500228 11.2008C0.550328 11.2327 0.608472 11.2496 0.667852 11.2497Z" fill="#979797"/>
<path fill-rule="evenodd" clip-rule="evenodd" d="M9.99976 3.75017C8.05976 3.75017 6.32477 4.63392 5.17852 6.02267C5.12733 6.08901 5.06333 6.14438 4.99032 6.18549C4.9173 6.2266 4.83677 6.25261 4.7535 6.26197C4.67024 6.27134 4.58594 6.26386 4.50562 6.23999C4.4253 6.21612 4.3506 6.17634 4.28596 6.12302C4.22132 6.0697 4.16807 6.00393 4.12936 5.92961C4.09065 5.8553 4.06728 5.77396 4.06064 5.69043C4.054 5.6069 4.06422 5.52289 4.0907 5.44339C4.11717 5.3639 4.15937 5.29053 4.21477 5.22767C5.13 4.11958 6.34425 3.29768 7.71309 2.85974C9.08194 2.42179 10.5478 2.38623 11.9362 2.75728C13.3247 3.12833 14.5774 3.89037 15.5453 4.95278C16.5132 6.01518 17.1556 7.33323 17.396 8.75017H16.1248C15.8366 7.33846 15.0695 6.06967 13.9534 5.15854C12.8372 4.2474 11.4406 3.74987 9.99976 3.75017ZM3.87477 11.2502C4.1114 12.4059 4.67021 13.4712 5.48661 14.3228C6.30302 15.1745 7.34371 15.7778 8.48847 16.063C9.63322 16.3483 10.8353 16.3038 11.9559 15.9348C13.0764 15.5658 14.0697 14.8873 14.821 13.9777C14.8722 13.9113 14.9362 13.856 15.0092 13.8148C15.0822 13.7737 15.1628 13.7477 15.246 13.7384C15.3293 13.729 15.4136 13.7365 15.4939 13.7603C15.5742 13.7842 15.6489 13.824 15.7136 13.8773C15.7782 13.9306 15.8315 13.9964 15.8702 14.0707C15.9089 14.145 15.9322 14.2264 15.9389 14.3099C15.9455 14.3934 15.9353 14.4774 15.9088 14.5569C15.8824 14.6364 15.8402 14.7098 15.7848 14.7727C14.8695 15.8808 13.6553 16.7027 12.2864 17.1406C10.9176 17.5785 9.45177 17.6141 8.0633 17.2431C6.67483 16.872 5.42215 16.11 4.45425 15.0476C3.48636 13.9852 2.84398 12.6671 2.60352 11.2502H3.87477Z" fill="#979797"/>
</svg>
