<svg width="19" height="20" viewBox="0 0 19 20" fill="none" xmlns="http://www.w3.org/2000/svg">
<rect x="0.5" y="1" width="18" height="18" rx="4.5" stroke="#898B8E"/>
<path d="M3 13.2357C3 12.9775 3.10257 12.7299 3.28515 12.5473C3.46773 12.3647 3.71536 12.2621 3.97357 12.2621H5.92071C6.17892 12.2621 6.42655 12.3647 6.60913 12.5473C6.79171 12.7299 6.89429 12.9775 6.89429 13.2357V16.1564C6.89429 16.4146 6.79171 16.6623 6.60913 16.8448C6.42655 17.0274 6.17892 17.13 5.92071 17.13H3.97357C3.71536 17.13 3.46773 17.0274 3.28515 16.8448C3.10257 16.6623 3 16.4146 3 16.1564V13.2357ZM7.86786 9.34143C7.86786 9.08322 7.97043 8.83559 8.15301 8.65301C8.33559 8.47043 8.58322 8.36786 8.84143 8.36786H10.7886C11.0468 8.36786 11.2944 8.47043 11.477 8.65301C11.6596 8.83559 11.7621 9.08322 11.7621 9.34143V16.1564C11.7621 16.4146 11.6596 16.6623 11.477 16.8448C11.2944 17.0274 11.0468 17.13 10.7886 17.13H8.84143C8.58322 17.13 8.33559 17.0274 8.15301 16.8448C7.97043 16.6623 7.86786 16.4146 7.86786 16.1564V9.34143ZM12.7357 4.47357C12.7357 4.21536 12.8383 3.96773 13.0209 3.78515C13.2034 3.60257 13.4511 3.5 13.7093 3.5H15.6564C15.9146 3.5 16.1623 3.60257 16.3448 3.78515C16.5274 3.96773 16.63 4.21536 16.63 4.47357V16.1564C16.63 16.4146 16.5274 16.6623 16.3448 16.8448C16.1623 17.0274 15.9146 17.13 15.6564 17.13H13.7093C13.4511 17.13 13.2034 17.0274 13.0209 16.8448C12.8383 16.6623 12.7357 16.4146 12.7357 16.1564V4.47357Z" fill="#898B8E"/>
</svg>
