<svg width="72" height="72" viewBox="0 0 72 72" fill="none" xmlns="http://www.w3.org/2000/svg">
<path d="M39.1539 48.7238H33.5139C29.5239 48.7238 26.2539 45.3638 26.2539 41.2238C26.2539 39.9938 27.2739 38.9738 28.5039 38.9738C29.7339 38.9738 30.7539 39.9938 30.7539 41.2238C30.7539 42.8738 31.9839 44.2238 33.5139 44.2238H39.1539C40.3239 44.2238 41.2539 43.1738 41.2539 41.8838C41.2539 40.2638 40.8039 40.0238 39.7839 39.6638L30.7539 36.5138C28.8339 35.8238 26.2539 34.4438 26.2539 30.0338C26.2539 26.2838 29.2239 23.1938 32.8539 23.1938H38.4939C42.4839 23.1938 45.7539 26.5538 45.7539 30.6938C45.7539 31.9238 44.7339 32.9438 43.5039 32.9438C42.2739 32.9438 41.2539 31.9238 41.2539 30.6938C41.2539 29.0438 40.0239 27.6938 38.4939 27.6938H32.8539C31.6839 27.6938 30.7539 28.7438 30.7539 30.0338C30.7539 31.6538 31.2039 31.8938 32.2239 32.2538L41.2539 35.4038C43.1739 36.0938 45.7539 37.4738 45.7539 41.8838C45.7539 45.6638 42.7839 48.7238 39.1539 48.7238Z" fill="#DF4A00"/>
<path d="M35.9902 51.772C34.7602 51.772 33.7402 50.752 33.7402 49.522V22.522C33.7402 21.292 34.7602 20.272 35.9902 20.272C37.2202 20.272 38.2402 21.292 38.2402 22.522V49.522C38.2402 50.752 37.2202 51.772 35.9902 51.772Z" fill="#DF4A00"/>
<path d="M35.9941 68.2437C18.2041 68.2437 3.74414 53.7837 3.74414 35.9937C3.74414 18.2037 18.2041 3.74365 35.9941 3.74365C37.2241 3.74365 38.2441 4.76365 38.2441 5.99365C38.2441 7.22365 37.2241 8.24365 35.9941 8.24365C20.6941 8.24365 8.24414 20.6937 8.24414 35.9937C8.24414 51.2937 20.6941 63.7437 35.9941 63.7437C51.2942 63.7437 63.7442 51.2937 63.7442 35.9937C63.7442 34.7637 64.7642 33.7437 65.9942 33.7437C67.2242 33.7437 68.2442 34.7637 68.2442 35.9937C68.2442 53.7837 53.7842 68.2437 35.9941 68.2437Z" fill="#DF4A00"/>
<path d="M65.9805 20.2437C64.7505 20.2437 63.7305 19.2237 63.7305 17.9937V8.24365H53.9805C52.7505 8.24365 51.7305 7.22365 51.7305 5.99365C51.7305 4.76365 52.7505 3.74365 53.9805 3.74365H65.9805C67.2105 3.74365 68.2305 4.76365 68.2305 5.99365V17.9937C68.2305 19.2237 67.2105 20.2437 65.9805 20.2437Z" fill="#DF4A00"/>
<path d="M51.0042 23.2361C50.4342 23.2361 49.8642 23.0261 49.4142 22.5761C48.5442 21.7061 48.5442 20.2662 49.4142 19.3962L64.4142 4.39615C65.2842 3.52615 66.7242 3.52615 67.5942 4.39615C68.4642 5.26615 68.4642 6.70615 67.5942 7.57614L52.5942 22.5761C52.1442 23.0261 51.5742 23.2361 51.0042 23.2361Z" fill="#DF4A00"/>
</svg>
