<svg width="25" height="24" viewBox="0 0 25 24" fill="none" xmlns="http://www.w3.org/2000/svg">
<rect width="24" height="24" transform="translate(0.5)" fill="white"/>
<path d="M14 9.25H2.5C2.09 9.25 1.75 8.91 1.75 8.5C1.75 8.09 2.09 7.75 2.5 7.75H14C14.41 7.75 14.75 8.09 14.75 8.5C14.75 8.91 14.41 9.25 14 9.25Z" fill="#9A76FD"/>
<path d="M8.5 17.25H6.5C6.09 17.25 5.75 16.91 5.75 16.5C5.75 16.09 6.09 15.75 6.5 15.75H8.5C8.91 15.75 9.25 16.09 9.25 16.5C9.25 16.91 8.91 17.25 8.5 17.25Z" fill="#9A76FD"/>
<path d="M15 17.25H11C10.59 17.25 10.25 16.91 10.25 16.5C10.25 16.09 10.59 15.75 11 15.75H15C15.41 15.75 15.75 16.09 15.75 16.5C15.75 16.91 15.41 17.25 15 17.25Z" fill="#9A76FD"/>
<path d="M18.06 21.25H6.94C2.96 21.25 1.75 20.05 1.75 16.11V7.89C1.75 3.95 2.96 2.75 6.94 2.75H14C14.41 2.75 14.75 3.09 14.75 3.5C14.75 3.91 14.41 4.25 14 4.25H6.94C3.8 4.25 3.25 4.79 3.25 7.89V16.1C3.25 19.2 3.8 19.74 6.94 19.74H18.05C21.19 19.74 21.74 19.2 21.74 16.1V12.02C21.74 11.61 22.08 11.27 22.49 11.27C22.9 11.27 23.24 11.61 23.24 12.02V16.1C23.25 20.05 22.04 21.25 18.06 21.25Z" fill="#9A76FD"/>
<path fill-rule="evenodd" clip-rule="evenodd" d="M19.5 10C19.6136 10 19.7226 9.95391 19.803 9.87187C19.8833 9.78984 19.9285 9.67857 19.9285 9.56255V4.49424L21.7676 6.37266C21.8074 6.41333 21.8547 6.44559 21.9068 6.4676C21.9588 6.48961 22.0146 6.50094 22.071 6.50094C22.1273 6.50094 22.1831 6.48961 22.2351 6.4676C22.2872 6.44559 22.3345 6.41333 22.3743 6.37266C22.4142 6.33198 22.4458 6.2837 22.4673 6.23056C22.4889 6.17742 22.5 6.12046 22.5 6.06294C22.5 6.00542 22.4889 5.94846 22.4673 5.89532C22.4458 5.84218 22.4142 5.7939 22.3743 5.75322L19.8034 3.12852C19.7636 3.08778 19.7163 3.05546 19.6642 3.0334C19.6122 3.01135 19.5564 3 19.5 3C19.4436 3 19.3878 3.01135 19.3358 3.0334C19.2837 3.05546 19.2364 3.08778 19.1966 3.12852L16.6257 5.75322C16.5452 5.83537 16.5 5.94677 16.5 6.06294C16.5 6.17911 16.5452 6.29051 16.6257 6.37266C16.7061 6.4548 16.8152 6.50094 16.929 6.50094C17.0428 6.50094 17.1519 6.4548 17.2324 6.37266L19.0715 4.49424V9.56255C19.0715 9.67857 19.1167 9.78984 19.197 9.87187C19.2774 9.95391 19.3864 10 19.5 10Z" fill="#9A76FD"/>
</svg>
