<svg width="29" height="30" viewBox="0 0 29 30" fill="none" xmlns="http://www.w3.org/2000/svg">
<g clip-path="url(#clip0_200_3345)">
<path fill-rule="evenodd" clip-rule="evenodd" d="M8.02084 9.11865C6.46111 10.837 5.64786 13.1045 5.75999 15.4224C5.87213 17.7404 6.90047 19.9188 8.61879 21.4786C10.3371 23.0383 12.6046 23.8516 14.9226 23.7394C17.2405 23.6273 19.419 22.5989 20.9787 20.8806C22.5384 19.1623 23.3517 16.8948 23.2395 14.5768C23.1274 12.2589 22.0991 10.0804 20.3808 8.52071C18.6624 6.96098 16.3949 6.14772 14.077 6.25986C11.759 6.372 9.58058 7.40034 8.02084 9.11865ZM21.9043 21.7208C20.1217 23.6846 17.632 24.8598 14.983 24.988C12.3339 25.1161 9.74244 24.1867 7.77865 22.4041C5.81485 20.6216 4.63961 18.1319 4.51145 15.4829C4.3833 12.8338 5.31273 10.2423 7.09528 8.27851C8.87783 6.31472 11.3675 5.13948 14.0166 5.01132C16.6656 4.88316 19.2571 5.8126 21.2209 7.59515C23.1847 9.3777 24.3599 11.8674 24.4881 14.5164C24.6162 17.1655 23.6868 19.757 21.9043 21.7208ZM12.0221 18.6592C11.9107 18.7819 11.755 18.8554 11.5895 18.8634C11.4239 18.8714 11.2619 18.8133 11.1392 18.7019C11.0165 18.5905 10.943 18.4349 10.935 18.2693C10.927 18.1037 10.9851 17.9418 11.0965 17.819L15.9634 12.4573L12.1734 12.6415C12.0076 12.6495 11.8454 12.5914 11.7226 12.4798C11.5997 12.3683 11.5261 12.2125 11.5181 12.0467C11.5101 11.8809 11.5682 11.7187 11.6798 11.5958C11.7913 11.4729 11.9471 11.3994 12.1129 11.3914L17.41 11.1351C17.4921 11.131 17.5742 11.1432 17.6516 11.1709C17.729 11.1986 17.8002 11.2413 17.8611 11.2966C17.922 11.3518 17.9713 11.4185 18.0064 11.4929C18.0414 11.5673 18.0615 11.6478 18.0653 11.7299L18.3216 17.027C18.3296 17.1928 18.2714 17.355 18.1599 17.4779C18.0483 17.6008 17.8925 17.6743 17.7268 17.6823C17.561 17.6904 17.3988 17.6322 17.2759 17.5206C17.153 17.4091 17.0795 17.2533 17.0715 17.0875L16.889 13.2974L12.0221 18.6592Z" fill="#00BA3F"/>
</g>
<defs>
<clipPath id="clip0_200_3345">
<rect width="20" height="20" fill="white" transform="translate(13.8164 0.874023) rotate(42.2303)"/>
</clipPath>
</defs>
</svg>
